HIERARCHY
ROOT root
{
	OFFSET 0.000000 0.000000 0.000000
	CHANNELS 6 Xposition Yposition Zposition Zrotation Yrotation Xrotation
	JOINT lhip
	{
		OFFSET 0.058581 -0.082280 -0.017664
		CHANNELS 3 Zrotation Yrotation Xrotation
		JOINT lknee
		{
			OFFSET 0.043451 -0.386469 0.008037
			CHANNELS 3 Zrotation Yrotation Xrotation
			JOINT lankle
			{
				OFFSET -0.014790 -0.426874 -0.037428
				CHANNELS 3 Zrotation Yrotation Xrotation
				JOINT ltoe
				{
					OFFSET 0.041054 -0.060286 0.122042
					CHANNELS 3 Zrotation Yrotation Xrotation
					End Site
					{
						OFFSET 0.000000 0.000000 0.000000
					}
				}
			}
		}
	}
	JOINT rhip
	{
		OFFSET -0.060310 -0.090513 -0.013543
		CHANNELS 3 Zrotation Yrotation Xrotation
		JOINT rknee
		{
			OFFSET -0.043257 -0.383688 -0.004843
			CHANNELS 3 Zrotation Yrotation Xrotation
			JOINT rankle
			{
				OFFSET 0.019056 -0.420046 -0.034562
				CHANNELS 3 Zrotation Yrotation Xrotation
				JOINT rtoe
				{
					OFFSET -0.034840 -0.062106 0.130323
					CHANNELS 3 Zrotation Yrotation Xrotation
					End Site
					{
						OFFSET 0.000000 0.000000 0.000000
					}
				}
			}
		}
	}
	JOINT lowerback
	{
		OFFSET 0.004439 0.124404 -0.038385
		CHANNELS 3 Zrotation Yrotation Xrotation
		JOINT upperback
		{
			OFFSET 0.004488 0.137956 0.026820
			CHANNELS 3 Zrotation Yrotation Xrotation
			JOINT chest
			{
				OFFSET -0.002265 0.056032 0.002855
				CHANNELS 3 Zrotation Yrotation Xrotation
				JOINT lowerneck
				{
					OFFSET -0.013390 0.211636 -0.033468
					CHANNELS 3 Zrotation Yrotation Xrotation
					JOINT upperneck
					{
						OFFSET 0.010113 0.088937 0.050410
						CHANNELS 3 Zrotation Yrotation Xrotation
						End Site
						{
							OFFSET 0.000000 0.000000 0.000000
						}
					}
				}
				JOINT lclavicle
				{
					OFFSET 0.071702 0.114000 -0.018898
					CHANNELS 3 Zrotation Yrotation Xrotation
					JOINT lshoulder
					{
						OFFSET 0.122921 0.045205 -0.019046
						CHANNELS 3 Zrotation Yrotation Xrotation
						JOINT lelbow
						{
							OFFSET 0.255332 -0.015649 -0.022946
							CHANNELS 3 Zrotation Yrotation Xrotation
							JOINT lwrist
							{
								OFFSET 0.265709 0.012698 -0.007375
								CHANNELS 3 Zrotation Yrotation Xrotation
								End Site
								{
									OFFSET 0.000000 0.000000 0.000000
								}
							}
						}
					}
				}
				JOINT rclavicle
				{
					OFFSET -0.082954 0.112472 -0.023707
					CHANNELS 3 Zrotation Yrotation Xrotation
					JOINT rshoulder
					{
						OFFSET -0.113228 0.046853 -0.008472
						CHANNELS 3 Zrotation Yrotation Xrotation
						JOINT relbow
						{
							OFFSET -0.260127 -0.014369 -0.031269
							CHANNELS 3 Zrotation Yrotation Xrotation
							JOINT rwrist
							{
								OFFSET -0.269108 0.006794 -0.006027
								CHANNELS 3 Zrotation Yrotation Xrotation
								End Site
								{
									OFFSET 0.000000 0.000000 0.000000
								}
							}
						}
					}
				}
			}
		}
	}
}
MOTION
Frames: 11
Frame Time: 0.033333
0.391734 0.167312 0.985020 95.413788 0.267718 85.799423 6.141034 4.854641 7.894193 -1.411747 -4.385169 0.805567 1.356174 8.371372 -10.230031 0.000000 -0.000000 0.000000 -3.677840 -1.848983 5.210680 -1.600681 4.802998 6.283456 2.215935 -4.592448 -10.902070 0.000000 -0.000000 0.000000 1.338758 3.046088 4.352344 -0.577706 1.241967 3.969188 -2.274473 1.598553 0.306102 5.147630 -10.329903 -7.016453 -2.697936 -12.605395 14.860914 -28.494827 1.463718 -2.611677 -51.321020 -0.323402 5.623125 6.079569 -24.044006 10.695877 13.940340 -4.484930 1.343339 20.822956 8.744884 -2.817544 36.887892 27.302790 9.979213 -110.299997 76.182222 -93.490049 -18.081765 11.708140 -19.179959 
0.390593 0.166877 0.985296 95.466750 0.338013 85.728420 6.210360 4.745452 7.766750 -1.409832 -4.304353 1.023064 1.329271 8.262149 -10.242710 0.000000 -0.000000 0.000000 -3.570091 -1.861868 5.225526 -1.621381 4.813365 6.264670 2.273620 -4.564174 -10.863597 0.000000 -0.000000 0.000000 1.347982 3.081884 4.648565 -0.584058 0.920709 3.713498 -2.245544 1.485143 0.458756 5.404740 -10.114679 -6.942696 -2.538207 -12.012434 14.461805 -28.190655 1.277382 -2.918374 -51.237865 -0.147885 5.546445 5.913385 -24.423601 10.497715 13.916226 -4.438261 1.330661 19.846083 8.972698 -3.740694 37.416098 27.966354 10.856742 -124.373054 74.590273 -106.723369 -17.363640 11.466882 -19.356442 
0.390364 0.166892 0.985368 95.443342 0.335786 85.693178 6.208460 4.808818 7.810855 -1.389718 -4.263687 1.004686 1.273277 8.153780 -10.242353 0.000000 -0.000000 0.000000 -3.588728 -1.869523 5.307492 -1.632608 4.750918 6.148370 2.278828 -4.525051 -10.764970 0.000000 -0.000000 0.000000 1.381034 3.087330 4.599803 -0.682995 0.762498 3.712217 -2.297889 1.348424 0.516469 5.699872 -9.848681 -6.708078 -2.448851 -11.404678 14.108875 -27.962375 1.102860 -2.977504 -51.123223 0.095741 5.319981 6.013043 -25.037887 10.254121 13.867784 -4.617229 1.572911 18.930317 9.228948 -4.430872 37.855770 28.888483 11.361535 -134.571887 72.674549 -116.061198 -16.959034 11.087034 -19.511751 
0.390007 0.166712 0.985467 95.379908 0.335111 85.674978 6.210143 4.794191 7.787671 -1.379738 -4.169641 1.051469 1.197786 8.074194 -10.213084 0.000000 -0.000000 0.000000 -3.544869 -1.819482 5.260746 -1.696143 4.742184 6.192823 2.261213 -4.504727 -10.747528 0.000000 -0.000000 0.000000 1.359129 3.141277 4.373554 -0.742780 0.577416 3.891616 -2.332210 1.244864 0.622716 6.010211 -9.584320 -6.385062 -2.291213 -10.833040 13.619290 -27.730398 0.619653 -2.989315 -51.099958 0.341623 5.242477 6.249832 -25.461340 9.676807 14.006827 -4.588065 1.513423 18.026567 9.700099 -5.054992 38.157297 29.965324 11.747095 -141.479018 70.274390 -122.157104 -16.507081 10.560098 -19.833985 
0.389920 0.166421 0.985606 95.248444 0.358728 85.647459 6.223830 4.843275 7.821875 -1.352060 -4.067765 1.025369 1.158634 8.002125 -10.196145 0.000000 -0.000000 0.000000 -3.502444 -1.717430 5.294150 -1.708981 4.772509 6.152766 2.291997 -4.494479 -10.707304 0.000000 -0.000000 0.000000 1.375518 3.127058 4.187244 -0.790067 0.457277 3.927681 -2.454943 1.255597 0.770617 6.446395 -9.339512 -6.267263 -2.334404 -10.565333 13.405916 -27.284751 0.804380 -3.046412 -51.302128 0.125504 5.007783 6.285467 -25.889751 10.112730 13.642537 -4.558030 1.459461 17.067313 9.918018 -5.773939 38.883249 31.351311 12.248990 -145.926053 68.274815 -125.611464 -15.931892 10.257817 -19.816993 
0.389763 0.166343 0.985762 95.157968 0.358116 85.678396 6.181420 4.944990 7.729880 -1.303017 -4.048762 1.111549 1.123276 7.924664 -10.197818 0.000000 -0.000000 0.000000 -3.499990 -1.625003 5.215818 -1.708938 4.768336 6.198635 2.306858 -4.418310 -10.682005 0.000000 -0.000000 0.000000 1.386218 3.115042 4.057034 -0.873366 0.334498 3.892818 -2.551023 1.196101 0.727570 6.707922 -9.184101 -5.993987 -2.272733 -10.255879 13.244821 -26.928119 0.477368 -2.946366 -51.416755 0.384145 4.847531 6.494294 -26.349719 10.140248 13.165476 -4.439503 1.274944 16.141265 10.358984 -6.288025 39.692671 32.544063 12.692802 -149.728631 65.913706 -128.594572 -15.012727 9.730451 -20.335046 
0.390024 0.166111 0.985810 94.933691 0.424176 85.672158 6.255189 5.103302 7.803274 -1.274012 -4.026747 1.047449 1.181809 7.924591 -10.145996 0.000000 -0.000000 0.000000 -3.398405 -1.586501 5.206047 -1.755015 4.898962 6.164368 2.304192 -4.392252 -10.693977 0.000000 -0.000000 0.000000 1.389666 3.073047 3.788896 -0.903581 0.300146 3.957043 -2.668114 1.255983 0.819574 7.075461 -9.004511 -5.720421 -2.069133 -9.967809 12.801690 -26.625875 0.292458 -2.913326 -51.448646 0.275034 4.823466 6.387530 -26.386817 11.201208 13.195152 -3.916642 -0.029191 15.391598 10.871366 -6.799136 40.350508 33.920020 13.011362 -152.090728 64.100573 -129.862789 -14.648501 9.733796 -20.708337 
0.389926 0.165708 0.985883 94.812039 0.469517 85.650072 6.292584 5.226742 7.798741 -1.228642 -3.956971 1.063376 1.103768 7.785899 -10.134975 0.000000 -0.000000 0.000000 -3.318938 -1.565035 5.151815 -1.793638 4.928416 6.210681 2.297084 -4.361791 -10.668407 0.000000 -0.000000 0.000000 1.285391 3.072743 3.659938 -0.913354 0.268505 3.986143 -2.668545 1.356317 0.842302 7.415072 -8.918801 -5.707075 -1.980214 -9.802556 12.691123 -26.301306 0.169224 -2.976994 -51.752806 0.130713 4.814243 6.406647 -26.323923 11.534642 13.208483 -3.949018 -0.517380 14.725678 11.246123 -7.209447 40.696982 35.333356 13.236233 -153.947799 62.262071 -131.387657 -14.589816 9.384769 -21.585958 
0.389933 0.165538 0.985962 94.683453 0.533557 85.629669 6.328509 5.234900 7.847602 -1.205434 -3.910087 0.982098 1.154190 7.833351 -10.131297 0.000000 -0.000000 0.000000 -3.230397 -1.482836 5.127033 -1.806496 4.929832 6.220040 2.280212 -4.264569 -10.679086 0.000000 -0.000000 0.000000 1.262229 3.090020 3.639252 -0.990730 0.293732 3.809821 -2.690144 1.432999 0.824038 7.739138 -8.779987 -5.634757 -1.926214 -9.571249 12.774662 -26.032366 0.045427 -3.134032 -52.019416 0.176703 4.750747 6.409295 -26.289759 11.718669 13.096410 -3.932038 -0.689243 14.000641 11.622156 -7.592006 41.166720 36.329898 13.491370 -155.230937 60.635169 -132.201788 -14.473933 9.369036 -22.029927 
0.389946 0.165387 0.986003 94.655156 0.594747 85.538390 6.377935 5.238958 7.864019 -1.189940 -3.900563 1.035488 1.070822 7.773226 -10.175262 0.000000 -0.000000 0.000000 -3.171693 -1.513519 5.198317 -1.796079 4.939599 6.196759 2.252579 -4.299035 -10.684741 0.000000 -0.000000 0.000000 1.198020 3.171357 3.576641 -1.014508 0.316725 3.846485 -2.635228 1.434623 0.810033 7.999704 -8.617451 -5.723316 -1.940907 -9.373312 12.632419 -26.081297 -0.362195 -2.956503 -52.069771 0.120655 4.746084 6.598276 -26.314369 11.328476 13.032741 -3.894497 -0.595119 13.773420 12.029004 -7.799444 40.364424 37.600073 12.992472 -155.622452 59.710389 -132.387989 -14.206811 9.154753 -21.970049 
0.390072 0.165391 0.986288 94.582159 0.611095 85.419885 6.374439 5.250223 7.975438 -1.177707 -3.862010 1.013606 1.034781 7.776151 -10.199565 0.000000 -0.000000 0.000000 -3.128052 -1.504032 5.297441 -1.841929 5.012229 6.183445 2.326064 -4.228511 -10.685812 0.000000 -0.000000 0.000000 1.211895 3.146883 3.612076 -1.171385 0.320541 3.722785 -2.706707 1.499095 0.728080 8.160477 -8.663114 -5.769777 -1.802393 -9.185904 12.687276 -25.975115 -0.576230 -3.084142 -52.096313 0.427957 4.701234 6.557978 -26.370360 11.181254 12.881604 -4.240410 -0.358237 13.227911 12.515768 -8.139665 39.988327 38.322404 12.823053 -155.591550 58.752559 -132.391916 -13.887224 8.754943 -20.321835 
